# xmcd
#
# Track frame offsets: 
#        150
#        29110
#        48909
#        65283
#        88450
#        100751
#        114974
#        128388
#        142249
#        161388
#        175772
#        199472
#        214581
#        234950
#        260260
#        283016
#
# Disc length: 4054 seconds
#
# Revision: 0
# Processed by: cddbd v1.5.2PL0 Copyright (c) Steve Scherf et al.
# Submitted via: ExactAudioCopy v1.0b4
#
DISCID=e20fd410
DTITLE=Peter Green Splinter Group - The Very Best Of [ disk 1 ]
DYEAR=2013
DGENRE=Blues Rock
TTITLE0=Look On Yonder Wall (Live)
TTITLE1=The Stumble (Live)
TTITLE2=Steady Rollin' Man (Live)
TTITLE3=It Takes Time (Live)
TTITLE4=When You Got A Good Friend
TTITLE5=Walkin' Blues
TTITLE6=Ramblin' On My Mind
TTITLE7=Me And The Devil Blues
TTITLE8=Sweet Home Chicago (Feat. Paul Rodgers)
TTITLE9=The Supernatural (Live)
TTITLE10=Shake Your Hips (Live)
TTITLE11=Last Fair Deal Gone Down
TTITLE12=If I Had Possession Over Judgement Day
TTITLE13=The Green Manalishi (With The Two Pronged Crown)
TTITLE14=Big Change Is Gonna Come
TTITLE15=Heart Of Stone
EXTD=
EXTT0=
EXTT1=
EXTT2=
EXTT3=
EXTT4=
EXTT5=
EXTT6=
EXTT7=
EXTT8=
EXTT9=
EXTT10=
EXTT11=
EXTT12=
EXTT13=
EXTT14=
EXTT15=
PLAYORDER=
